<svg xmlns="http://www.w3.org/2000/svg" width="1600" height="900" viewBox="0 0 1600 900" preserveAspectRatio="xMidYMid meet">
  <rect width="1600" height="900" fill="#ffffff"/>
  <g transform="translate(800 330)" text-anchor="middle" font-family="Inter, -apple-system, BlinkMacSystemFont, sans-serif">
    <text y="0" font-size="72" font-weight="800" letter-spacing="-2" fill="#111827">Browser <tspan fill="#3b82f6">Agent</tspan></text>
  </g>
  <g transform="translate(380 420)">
    <rect width="840" height="72" rx="36" fill="#ffffff" stroke="#e5e7eb" stroke-width="1.5"/>
    <g transform="translate(28 36)" fill="none" stroke="#94a3b8" stroke-width="2.2" stroke-linecap="round" stroke-linejoin="round">
      <circle cx="12" cy="0" r="10"/>
      <path d="M20 8 L28 16"/>
    </g>
    <text x="76" y="44" font-family="Inter, sans-serif" font-size="20" fill="#94a3b8">Search anything, or ask the agent...</text>
    <g transform="translate(770 36)" fill="none" stroke="#3b82f6" stroke-width="2.4" stroke-linecap="round" stroke-linejoin="round">
      <circle cx="0" cy="0" r="14" fill="#3b82f6"/>
      <path d="M-5 0 L5 0" stroke="#ffffff"/>
      <path d="M0 -5 L0 5" stroke="#ffffff"/>
    </g>
  </g>
  <g transform="translate(800 540)" text-anchor="middle" font-family="Inter, sans-serif">
    <g>
      <rect x="-210" y="-20" width="150" height="44" rx="8" fill="#f9fafb" stroke="#e5e7eb"/>
      <text x="-135" y="8" font-size="16" fill="#374151">Search</text>
    </g>
    <g>
      <rect x="-40" y="-20" width="160" height="44" rx="8" fill="#f9fafb" stroke="#e5e7eb"/>
      <text x="40" y="8" font-size="16" fill="#374151">I'm feeling smart</text>
    </g>
    <g>
      <rect x="140" y="-20" width="130" height="44" rx="8" fill="#eff6ff" stroke="#bfdbfe"/>
      <text x="205" y="8" font-size="16" fill="#2563eb">Ask Agent</text>
    </g>
  </g>
  <g transform="translate(150 760)" font-family="Inter, sans-serif">
    <text font-size="13" fill="#9ca3af" letter-spacing="2">SHORTCUTS</text>
    <g transform="translate(0 28)">
      <rect width="180" height="72" rx="12" fill="#f8fafc" stroke="#e5e7eb"/>
      <circle cx="32" cy="36" r="14" fill="#fbbf24"/>
      <rect x="56" y="24" width="100" height="8" rx="3" fill="#cbd5e1"/>
      <rect x="56" y="40" width="72" height="6" rx="3" fill="#e2e8f0"/>
    </g>
    <g transform="translate(200 28)">
      <rect width="180" height="72" rx="12" fill="#f8fafc" stroke="#e5e7eb"/>
      <circle cx="32" cy="36" r="14" fill="#60a5fa"/>
      <rect x="56" y="24" width="100" height="8" rx="3" fill="#cbd5e1"/>
      <rect x="56" y="40" width="72" height="6" rx="3" fill="#e2e8f0"/>
    </g>
    <g transform="translate(400 28)">
      <rect width="180" height="72" rx="12" fill="#f8fafc" stroke="#e5e7eb"/>
      <circle cx="32" cy="36" r="14" fill="#34d399"/>
      <rect x="56" y="24" width="100" height="8" rx="3" fill="#cbd5e1"/>
      <rect x="56" y="40" width="72" height="6" rx="3" fill="#e2e8f0"/>
    </g>
    <g transform="translate(600 28)">
      <rect width="180" height="72" rx="12" fill="#f8fafc" stroke="#e5e7eb"/>
      <circle cx="32" cy="36" r="14" fill="#f87171"/>
      <rect x="56" y="24" width="100" height="8" rx="3" fill="#cbd5e1"/>
      <rect x="56" y="40" width="72" height="6" rx="3" fill="#e2e8f0"/>
    </g>
  </g>
</svg>
